<svg xmlns="http://www.w3.org/2000/svg" width="88.699" height="59.132" viewBox="0 0 88.699 59.132"><defs><style>.a{fill:#fff;}</style></defs><g transform="translate(-346.15 -147.58)"><path class="a" d="M433,195.625h-5.544V154.972a7.4,7.4,0,0,0-7.391-7.392H360.933a7.4,7.4,0,0,0-7.391,7.392v40.653H348a1.848,1.848,0,0,0-1.848,1.848v1.848a7.4,7.4,0,0,0,7.392,7.391h73.915a7.4,7.4,0,0,0,7.392-7.391v-1.848A1.848,1.848,0,0,0,433,195.625Zm-75.763-40.653a3.7,3.7,0,0,1,3.7-3.7h59.133a3.7,3.7,0,0,1,3.695,3.7v40.653H357.238Zm70.219,48.045H353.542a3.7,3.7,0,0,1-3.7-3.7h30.649l1.307,1.306a1.843,1.843,0,0,0,1.306.542h14.783a1.847,1.847,0,0,0,1.307-.542l1.306-1.306h30.649A3.7,3.7,0,0,1,427.457,203.017Z"/></g></svg>